Normalized EMG Linear Envelopes
nRows=59
nColumns=17

endheader
time	        VM	        VL	        RF	       GRA	        TA	   ADDLONG	   SEMIMEM	      BFLH	        GM	        GL	       TFL	   GLUTMAX	   GLUTMED	      PIRI	    OBTINT	        QF	
4.2425	  0.000386	  0.000000	  0.000000	  0.000000	  0.000000	  0.000000	  0.000005	  0.000083	  0.000000	  0.000000	  0.000000	  0.000000	  0.000000	  0.000000	  0.000000	  0.000000	
4.243	  0.000464	  0.000000	  0.000000	  0.000000	  0.000000	  0.000000	  0.000092	  0.000173	  0.000000	  0.000000	  0.000000	  0.000020	  0.000000	  0.000000	  0.000000	  0.000000	
4.2435	  0.000545	  0.000000	  0.000000	  0.000000	  0.000000	  0.000000	  0.000183	  0.000266	  0.000000	  0.000000	  0.000000	  0.000384	  0.000000	  0.000000	  0.000000	  0.000000	
4.244	  0.000628	  0.000000	  0.000000	  0.000000	  0.000000	  0.000000	  0.000277	  0.000363	  0.000000	  0.000000	  0.000000	  0.000761	  0.000000	  0.000000	  0.000000	  0.000000	
4.2445	  0.000713	  0.000117	  0.000000	  0.000000	  0.000000	  0.000000	  0.000374	  0.000462	  0.000000	  0.000000	  0.000000	  0.001150	  0.000000	  0.000000	  0.000000	  0.000000	
4.245	  0.000801	  0.000248	  0.000000	  0.000000	  0.000000	  0.000000	  0.000473	  0.000564	  0.000000	  0.000000	  0.000000	  0.001552	  0.000000	  0.000000	  0.000000	  0.000000	
4.2455	  0.000892	  0.000382	  0.000000	  0.000000	  0.000000	  0.000000	  0.000576	  0.000669	  0.000000	  0.000000	  0.000000	  0.001966	  0.000000	  0.000000	  0.000000	  0.000000	
4.246	  0.000985	  0.000522	  0.000000	  0.000000	  0.000000	  0.000000	  0.000682	  0.000778	  0.000000	  0.000000	  0.000000	  0.002394	  0.000000	  0.000000	  0.000000	  0.000000	
4.2465	  0.001080	  0.000665	  0.000000	  0.000000	  0.000000	  0.000000	  0.000792	  0.000890	  0.000069	  0.000000	  0.000000	  0.002834	  0.000000	  0.000000	  0.000000	  0.000000	
4.247	  0.001179	  0.000813	  0.000000	  0.000000	  0.000000	  0.000000	  0.000904	  0.001005	  0.000158	  0.000000	  0.000000	  0.003288	  0.000000	  0.000000	  0.000000	  0.000000	
4.2475	  0.001280	  0.000966	  0.000000	  0.000000	  0.000000	  0.000000	  0.001020	  0.001123	  0.000249	  0.000000	  0.000000	  0.003755	  0.000000	  0.000000	  0.000000	  0.000000	
4.248	  0.001383	  0.001123	  0.000000	  0.000094	  0.000000	  0.000000	  0.001139	  0.001245	  0.000343	  0.000000	  0.000000	  0.004236	  0.000000	  0.000000	  0.000000	  0.000000	
4.2485	  0.001490	  0.001285	  0.000000	  0.000615	  0.000000	  0.000000	  0.001261	  0.001370	  0.000441	  0.000000	  0.000000	  0.004731	  0.000000	  0.000000	  0.000000	  0.000000	
4.249	  0.001599	  0.001452	  0.001049	  0.001153	  0.000000	  0.000000	  0.001387	  0.001499	  0.000541	  0.000000	  0.000000	  0.005239	  0.000000	  0.000000	  0.000000	  0.000000	
4.2495	  0.001711	  0.001623	  0.002171	  0.001708	  0.000000	  0.000000	  0.001517	  0.001631	  0.000644	  0.000000	  0.000000	  0.005762	  0.000000	  0.000000	  0.000000	  0.000000	
4.25	  0.001825	  0.001800	  0.003330	  0.002281	  0.000000	  0.000000	  0.001650	  0.001767	  0.000751	  0.000027	  0.000280	  0.006300	  0.000000	  0.000000	  0.000000	  0.000000	
4.2505	  0.001943	  0.001981	  0.004526	  0.002872	  0.000000	  0.000000	  0.001786	  0.001906	  0.000861	  0.000064	  0.000799	  0.006852	  0.000000	  0.000000	  0.000000	  0.000000	
4.251	  0.002063	  0.002167	  0.005760	  0.003482	  0.000000	  0.000000	  0.001926	  0.002049	  0.000974	  0.000102	  0.001334	  0.007419	  0.000000	  0.000000	  0.000000	  0.000000	
4.2515	  0.002187	  0.002359	  0.007032	  0.004110	  0.000000	  0.000000	  0.002070	  0.002195	  0.001090	  0.000142	  0.001886	  0.008001	  0.000000	  0.000000	  0.000000	  0.000000	
4.252	  0.002313	  0.002555	  0.008344	  0.004757	  0.000000	  0.000000	  0.002218	  0.002346	  0.001210	  0.000183	  0.002457	  0.008598	  0.000000	  0.000000	  0.000000	  0.000000	
4.2525	  0.002442	  0.002757	  0.009695	  0.005424	  0.000000	  0.000000	  0.002369	  0.002500	  0.001333	  0.000225	  0.003045	  0.009210	  0.000000	  0.000000	  0.000000	  0.000000	
4.253	  0.002575	  0.002964	  0.011086	  0.006109	  0.000000	  0.000397	  0.002524	  0.002658	  0.001459	  0.000268	  0.003651	  0.009838	  0.000000	  0.000000	  0.000000	  0.000000	
4.2535	  0.002710	  0.003176	  0.012518	  0.006815	  0.000000	  0.001121	  0.002683	  0.002819	  0.001589	  0.000313	  0.004276	  0.010482	  0.000000	  0.000000	  0.000000	  0.000000	
4.254	  0.002848	  0.003394	  0.013992	  0.007541	  0.000000	  0.001868	  0.002845	  0.002985	  0.001722	  0.000359	  0.004919	  0.011141	  0.000000	  0.000000	  0.000000	  0.000000	
4.2545	  0.002990	  0.003617	  0.015507	  0.008286	  0.000000	  0.002640	  0.003012	  0.003154	  0.001859	  0.000407	  0.005581	  0.011817	  0.000000	  0.000000	  0.000000	  0.000000	
4.255	  0.003134	  0.003846	  0.017065	  0.009053	  0.000000	  0.003436	  0.003182	  0.003328	  0.001999	  0.000456	  0.006263	  0.012508	  0.000000	  0.000000	  0.000000	  0.000000	
4.2555	  0.003282	  0.004080	  0.018666	  0.009840	  0.000000	  0.004258	  0.003357	  0.003505	  0.002143	  0.000506	  0.006964	  0.013216	  0.000000	  0.000000	  0.000000	  0.000000	
4.256	  0.003433	  0.004320	  0.020311	  0.010648	  0.000000	  0.005105	  0.003535	  0.003687	  0.002291	  0.000557	  0.007685	  0.013941	  0.000000	  0.000000	  0.000000	  0.000000	
4.2565	  0.003587	  0.004566	  0.022000	  0.011478	  0.000000	  0.005977	  0.003718	  0.003872	  0.002443	  0.000611	  0.008426	  0.014682	  0.000000	  0.000000	  0.000000	  0.000000	
4.257	  0.003744	  0.004817	  0.023733	  0.012329	  0.000000	  0.006876	  0.003904	  0.004062	  0.002598	  0.000665	  0.009187	  0.015440	  0.000000	  0.000000	  0.000000	  0.000000	
4.2575	  0.003904	  0.005074	  0.025512	  0.013202	  0.000364	  0.007801	  0.004095	  0.004256	  0.002757	  0.000721	  0.009969	  0.016215	  0.000000	  0.000000	  0.000000	  0.000000	
4.258	  0.004068	  0.005337	  0.027337	  0.014097	  0.001471	  0.008753	  0.004290	  0.004454	  0.002919	  0.000779	  0.010772	  0.017007	  0.000000	  0.000000	  0.000000	  0.000000	
4.2585	  0.004235	  0.005606	  0.029207	  0.015015	  0.002616	  0.009732	  0.004489	  0.004656	  0.003086	  0.000838	  0.011595	  0.017816	  0.000000	  0.000000	  0.000000	  0.000000	
4.259	  0.004405	  0.005881	  0.031125	  0.015955	  0.003797	  0.010739	  0.004692	  0.004862	  0.003257	  0.000898	  0.012440	  0.018643	  0.000000	  0.000000	  0.000000	  0.000000	
4.2595	  0.004578	  0.006162	  0.033090	  0.016918	  0.005016	  0.011774	  0.004900	  0.005073	  0.003431	  0.000960	  0.013307	  0.019487	  0.000000	  0.000000	  0.000000	  0.000000	
4.26	  0.004755	  0.006448	  0.035103	  0.017904	  0.006274	  0.012837	  0.005111	  0.005288	  0.003610	  0.001024	  0.014195	  0.020348	  0.000000	  0.000000	  0.000000	  0.000000	
4.2605	  0.004935	  0.006741	  0.037164	  0.018913	  0.007570	  0.013929	  0.005327	  0.005507	  0.003792	  0.001089	  0.015106	  0.021227	  0.000000	  0.000000	  0.000000	  0.000000	
4.261	  0.005118	  0.007040	  0.039274	  0.019945	  0.008906	  0.015050	  0.005548	  0.005730	  0.003978	  0.001156	  0.016038	  0.022125	  0.000000	  0.000000	  0.000000	  0.000000	
4.2615	  0.005304	  0.007345	  0.041433	  0.021002	  0.010282	  0.016200	  0.005772	  0.005958	  0.004169	  0.001224	  0.016994	  0.023039	  0.000000	  0.000000	  0.000000	  0.000000	
4.262	  0.005494	  0.007656	  0.043641	  0.022082	  0.011699	  0.017380	  0.006001	  0.006190	  0.004364	  0.001294	  0.017972	  0.023972	  0.000000	  0.000000	  0.000000	  0.000000	
4.2625	  0.005687	  0.007974	  0.045900	  0.023186	  0.013157	  0.018590	  0.006235	  0.006427	  0.004562	  0.001366	  0.018972	  0.024923	  0.000000	  0.000000	  0.000000	  0.000000	
4.263	  0.005884	  0.008298	  0.048210	  0.024315	  0.014657	  0.019831	  0.006472	  0.006668	  0.004765	  0.001439	  0.019996	  0.025893	  0.000000	  0.000000	  0.000000	  0.000000	
4.2635	  0.006084	  0.008628	  0.050570	  0.025468	  0.016200	  0.021103	  0.006715	  0.006913	  0.004972	  0.001514	  0.021044	  0.026880	  0.000000	  0.000000	  0.000000	  0.000000	
4.264	  0.006287	  0.008964	  0.052982	  0.026646	  0.017785	  0.022405	  0.006961	  0.007163	  0.005184	  0.001591	  0.022115	  0.027886	  0.000000	  0.000000	  0.000000	  0.000000	
4.2645	  0.006494	  0.009307	  0.055446	  0.027848	  0.019414	  0.023739	  0.007212	  0.007417	  0.005399	  0.001669	  0.023210	  0.028909	  0.000000	  0.000000	  0.000000	  0.000000	
4.265	  0.006704	  0.009656	  0.057961	  0.029076	  0.021088	  0.025105	  0.007468	  0.007675	  0.005619	  0.001750	  0.024329	  0.029952	  0.000000	  0.000000	  0.000000	  0.000000	
4.2655	  0.006917	  0.010011	  0.060529	  0.030329	  0.022806	  0.026503	  0.007727	  0.007938	  0.005843	  0.001831	  0.025471	  0.031012	  0.000000	  0.000000	  0.000000	  0.000000	
4.266	  0.007133	  0.010373	  0.063150	  0.031607	  0.024569	  0.027933	  0.007992	  0.008206	  0.006071	  0.001915	  0.026639	  0.032092	  0.000000	  0.000000	  0.000000	  0.000000	
4.2665	  0.007353	  0.010741	  0.065824	  0.032910	  0.026378	  0.029396	  0.008261	  0.008478	  0.006304	  0.002000	  0.027830	  0.033189	  0.000000	  0.000000	  0.000000	  0.000000	
4.267	  0.007577	  0.011116	  0.068551	  0.034239	  0.028233	  0.030892	  0.008534	  0.008754	  0.006541	  0.002087	  0.029047	  0.034305	  0.000000	  0.000000	  0.000000	  0.000000	
4.2675	  0.007803	  0.011497	  0.071332	  0.035594	  0.030135	  0.032421	  0.008811	  0.009035	  0.006782	  0.002176	  0.030288	  0.035440	  0.000000	  0.000000	  0.000000	  0.000000	
4.268	  0.008033	  0.011884	  0.074167	  0.036974	  0.032085	  0.033983	  0.009093	  0.009320	  0.007028	  0.002267	  0.031554	  0.036593	  0.000000	  0.000000	  0.000000	  0.000000	
4.2685	  0.008266	  0.012278	  0.077057	  0.038381	  0.034082	  0.035580	  0.009380	  0.009609	  0.007278	  0.002359	  0.032845	  0.037764	  0.000000	  0.000000	  0.000000	  0.000000	
4.269	  0.008502	  0.012678	  0.080000	  0.039813	  0.036128	  0.037210	  0.009671	  0.009903	  0.007532	  0.002453	  0.034161	  0.038954	  0.000000	  0.000000	  0.000000	  0.000000	
4.2695	  0.008741	  0.013085	  0.082998	  0.041272	  0.038222	  0.038874	  0.009966	  0.010201	  0.007791	  0.002549	  0.035503	  0.040162	  0.000000	  0.000000	  0.000000	  0.000000	
4.27	  0.008984	  0.013498	  0.086051	  0.042756	  0.040366	  0.040573	  0.010266	  0.010504	  0.008054	  0.002647	  0.036870	  0.041388	  0.000000	  0.000000	  0.000000	  0.000000	
4.2705	  0.009230	  0.013918	  0.089158	  0.044267	  0.042560	  0.042306	  0.010570	  0.010811	  0.008322	  0.002747	  0.038262	  0.042633	  0.000000	  0.000000	  0.000000	  0.000000	
4.271	  0.009479	  0.014343	  0.092321	  0.045804	  0.044804	  0.044074	  0.010878	  0.011122	  0.008593	  0.002848	  0.039680	  0.043895	  0.000000	  0.000000	  0.000000	  0.000000	
4.2715	  0.009731	  0.014776	  0.095538	  0.047367	  0.047098	  0.045877	  0.011191	  0.011437	  0.008870	  0.002951	  0.041124	  0.045176	  0.000000	  0.000000	  0.000000	  0.000000	
